<svg width="17" height="17" viewBox="0 0 17 17" fill="none" xmlns="http://www.w3.org/2000/svg">
<g clip-path="url(#clip0_61_538)">
<path fill-rule="evenodd" clip-rule="evenodd" d="M8.62817 0.637273C8.56601 0.533669 8.41586 0.533669 8.35372 0.637273L6.84475 3.15316C6.80367 3.22164 6.71839 3.24935 6.6449 3.21809L3.94532 2.06965C3.83415 2.02236 3.71268 2.11061 3.7233 2.23095L3.98132 5.15329C3.98834 5.23284 3.93564 5.30539 3.85781 5.32329L0.998766 5.98096C0.881031 6.00804 0.834633 6.15084 0.913965 6.24196L2.84042 8.45452C2.89286 8.51475 2.89286 8.60442 2.84042 8.66466L0.913965 10.8772C0.834633 10.9683 0.881031 11.1111 0.998767 11.1382L3.85781 11.7959C3.93564 11.8138 3.98834 11.8863 3.98132 11.9659L3.7233 14.8882C3.71268 15.0086 3.83415 15.0968 3.94532 15.0495L6.6449 13.9011C6.71839 13.8698 6.80367 13.8975 6.84475 13.966L8.35372 16.4819C8.41586 16.5855 8.56601 16.5855 8.62817 16.4819L10.1371 13.966C10.1782 13.8975 10.2634 13.8698 10.337 13.9011L13.0366 15.0495C13.1477 15.0968 13.2692 15.0086 13.2586 14.8882L13.0006 11.9659C12.9935 11.8863 13.0462 11.8138 13.1241 11.7959L15.9831 11.1382C16.1008 11.1111 16.1472 10.9683 16.0679 10.8772L14.1414 8.66466C14.089 8.60442 14.089 8.51475 14.1414 8.45452L16.0679 6.24196C16.1472 6.15084 16.1008 6.00804 15.9831 5.98096L13.1241 5.32329C13.0462 5.30539 12.9935 5.23284 13.0006 5.15329L13.2586 2.23095C13.2692 2.11061 13.1477 2.02236 13.0366 2.06965L10.337 3.21809C10.2634 3.24935 10.1782 3.22164 10.1371 3.15316L8.62817 0.637273ZM8.49985 12.5685C10.709 12.5685 12.4998 10.7776 12.4998 8.5685C12.4998 6.35936 10.709 4.5685 8.49985 4.5685C6.29071 4.5685 4.49985 6.35936 4.49985 8.5685C4.49985 10.7776 6.29071 12.5685 8.49985 12.5685Z" fill="#0C1618"/>
</g>
<defs>
<clipPath id="clip0_61_538">
<rect width="16" height="16" fill="white" transform="translate(0.5 0.568359)"/>
</clipPath>
</defs>
</svg>
