<svg width="17" height="16" viewBox="0 0 17 16" fill="none" xmlns="http://www.w3.org/2000/svg">
<path fill-rule="evenodd" clip-rule="evenodd" d="M8.62866 0.0687919C8.5665 -0.0348122 8.41634 -0.0348121 8.35421 0.068792L6.84524 2.58468C6.80416 2.65316 6.71888 2.68087 6.64539 2.64961L3.94581 1.50117C3.83464 1.45388 3.71317 1.54213 3.72379 1.66247L3.98181 4.58481C3.98883 4.66436 3.93613 4.73691 3.8583 4.75481L0.999255 5.41248C0.881519 5.43956 0.835122 5.58236 0.914453 5.67348L2.8409 7.88604C2.89334 7.94627 2.89334 8.03594 2.8409 8.09618L0.914453 10.3087C0.835122 10.3999 0.881519 10.5427 0.999255 10.5697L3.8583 11.2274C3.93613 11.2453 3.98883 11.3179 3.98181 11.3974L3.72379 14.3197C3.71317 14.4401 3.83464 14.5283 3.94581 14.4811L6.64539 13.3326C6.71888 13.3013 6.80416 13.3291 6.84524 13.3975L8.35421 15.9134C8.41634 16.0171 8.5665 16.017 8.62866 15.9134L10.1376 13.3975C10.1787 13.3291 10.2639 13.3013 10.3375 13.3326L13.0371 14.4811C13.1482 14.5283 13.2697 14.4401 13.2591 14.3197L13.0011 11.3974C12.994 11.3179 13.0467 11.2453 13.1246 11.2274L15.9836 10.5697C16.1013 10.5427 16.1477 10.3999 16.0684 10.3087L14.1419 8.09618C14.0895 8.03594 14.0895 7.94627 14.1419 7.88604L16.0684 5.67348C16.1477 5.58236 16.1013 5.43956 15.9836 5.41248L13.1246 4.75481C13.0467 4.73691 12.994 4.66436 13.0011 4.58481L13.2591 1.66247C13.2697 1.54213 13.1482 1.45388 13.0371 1.50117L10.3375 2.64961C10.2639 2.68087 10.1787 2.65316 10.1376 2.58468L8.62866 0.0687919ZM8.50034 12C10.7095 12 12.5003 10.2091 12.5003 8.00002C12.5003 5.79088 10.7095 4.00002 8.50034 4.00002C6.2912 4.00002 4.50034 5.79088 4.50034 8.00002C4.50034 10.2091 6.2912 12 8.50034 12Z" fill="#004643"/>
</svg>
