<svg width="32" height="32" viewBox="0 0 32 32" fill="none" xmlns="http://www.w3.org/2000/svg">
<path d="M14.1332 18.4003L11.2665 15.5337C11.0221 15.2892 10.7109 15.167 10.3332 15.167C9.95539 15.167 9.64428 15.2892 9.39984 15.5337C9.15539 15.7781 9.03317 16.0892 9.03317 16.467C9.03317 16.8448 9.15539 17.1559 9.39984 17.4003L13.1998 21.2003C13.4665 21.467 13.7776 21.6003 14.1332 21.6003C14.4887 21.6003 14.7998 21.467 15.0665 21.2003L22.5998 13.667C22.8443 13.4225 22.9665 13.1114 22.9665 12.7337C22.9665 12.3559 22.8443 12.0448 22.5998 11.8003C22.3554 11.5559 22.0443 11.4337 21.6665 11.4337C21.2887 11.4337 20.9776 11.5559 20.7332 11.8003L14.1332 18.4003ZM15.9998 29.3337C14.1554 29.3337 12.4221 28.9834 10.7998 28.283C9.17762 27.5825 7.7665 26.6328 6.5665 25.4337C5.3665 24.2337 4.41673 22.8225 3.71717 21.2003C3.01762 19.5781 2.66739 17.8448 2.6665 16.0003C2.6665 14.1559 3.01673 12.4225 3.71717 10.8003C4.41762 9.1781 5.36739 7.76699 6.5665 6.56699C7.7665 5.36699 9.17762 4.41721 10.7998 3.71766C12.4221 3.0181 14.1554 2.66788 15.9998 2.66699C17.8443 2.66699 19.5776 3.01721 21.1998 3.71766C22.8221 4.4181 24.2332 5.36788 25.4332 6.56699C26.6332 7.76699 27.5834 9.1781 28.2838 10.8003C28.9843 12.4225 29.3341 14.1559 29.3332 16.0003C29.3332 17.8448 28.9829 19.5781 28.2825 21.2003C27.5821 22.8225 26.6323 24.2337 25.4332 25.4337C24.2332 26.6337 22.8221 27.5839 21.1998 28.2843C19.5776 28.9848 17.8443 29.3345 15.9998 29.3337Z" fill="#F77F00"/>
</svg>
