<svg width="40" height="40" viewBox="0 0 40 40" fill="none" xmlns="http://www.w3.org/2000/svg">
<rect width="40" height="40" rx="20" fill="white"/>
<g clip-path="url(#clip0_313_977)">
<path d="M22.3143 22.3143C20.4286 24.26 20.2914 26.6857 20.1286 32C25.0829 32 28.5029 31.9829 30.2686 30.2686C31.9829 28.5029 32 24.92 32 20.1286C26.6857 20.3 24.26 20.4286 22.3143 22.3143ZM8 20.1286C8 24.92 8.01714 28.5029 9.73143 30.2686C11.4971 31.9829 14.9171 32 19.8714 32C19.7 26.6857 19.5714 24.26 17.6857 22.3143C15.74 20.4286 13.3143 20.2914 8 20.1286ZM19.8714 8C14.9257 8 11.4971 8.01714 9.73143 9.73143C8.01714 11.4971 8 15.08 8 19.8714C13.3143 19.7 15.74 19.5714 17.6857 17.6857C19.5714 15.74 19.7086 13.3143 19.8714 8ZM22.3143 17.6857C20.4286 15.74 20.2914 13.3143 20.1286 8C25.0829 8 28.5029 8.01714 30.2686 9.73143C31.9829 11.4971 32 15.08 32 19.8714C26.6857 19.7 24.26 19.5714 22.3143 17.6857Z" fill="#F77F00"/>
<path d="M32 20.1286V19.8714C26.6857 19.7 24.26 19.5714 22.3143 17.6857C20.4286 15.74 20.2914 13.3143 20.1286 8H19.8714C19.7 13.3143 19.5714 15.74 17.6857 17.6857C15.74 19.5714 13.3143 19.7086 8 19.8714V20.1286C13.3143 20.3 15.74 20.4286 17.6857 22.3143C19.5714 24.26 19.7086 26.6857 19.8714 32H20.1286C20.3 26.6857 20.4286 24.26 22.3143 22.3143C24.26 20.4286 26.6857 20.2914 32 20.1286Z" fill="white"/>
</g>
<defs>
<clipPath id="clip0_313_977">
<rect width="24" height="24" fill="white" transform="translate(8 8)"/>
</clipPath>
</defs>
</svg>
