<svg width="45" height="36" viewBox="0 0 45 36" fill="none" xmlns="http://www.w3.org/2000/svg">
<path fill-rule="evenodd" clip-rule="evenodd" d="M-0.0876465 16.3235L22.1648 0.123535L44.4173 16.3235V28.1344L22.1648 11.9344L-0.0876465 28.1344V16.3235ZM14.9346 32.2012L22.1648 26.9375L29.3951 32.2012V36.0386L22.1648 30.7751L14.9346 36.0386V32.2012ZM8.03146 25.9743L22.1648 15.6852L36.2982 25.9743V33.4759L22.1648 23.1867L8.03146 33.4759V25.9743Z" fill="#FF3041"/>
<path fill-rule="evenodd" clip-rule="evenodd" d="M22.1648 0.123535L44.4174 16.3235V28.1344L22.1648 11.9344V0.123535ZM22.1648 30.7751V26.9375L29.3951 32.2012V36.0386L22.1648 30.7751ZM22.1648 23.1867V15.6852L36.2982 25.9743V33.4759L22.1648 23.1867Z" fill="#FF3041"/>
</svg>
