<svg width="25" height="24" viewBox="0 0 25 24" fill="none" xmlns="http://www.w3.org/2000/svg">
<g clip-path="url(#clip0_61_790)">
<path d="M12.4999 0C19.1119 0 24.4999 5.37597 24.4999 11.9999C24.4999 18.6119 19.1119 23.9999 12.4999 23.9999C5.87597 23.9999 0.5 18.6119 0.5 11.9999C0.5 5.37597 5.87597 0 12.4999 0ZM8.97196 9.63595C8.62396 9.27595 8.04796 9.27596 7.69996 9.62395C7.33997 9.98395 7.33997 10.5479 7.69996 10.8959L11.8639 15.0839C12.0319 15.2519 12.2599 15.3479 12.4999 15.3479C12.7399 15.3479 12.9679 15.2519 13.1359 15.0839L17.2999 10.8959C17.4799 10.7279 17.5639 10.4999 17.5639 10.2719C17.5639 10.032 17.4799 9.80395 17.2999 9.62395C16.9399 9.27596 16.3759 9.27595 16.0279 9.63595L12.4999 13.1759L8.97196 9.63595Z" fill="#0C1618"/>
</g>
<defs>
<clipPath id="clip0_61_790">
<rect width="24" height="24" fill="white" transform="translate(0.5)"/>
</clipPath>
</defs>
</svg>
