<svg width="40" height="40" viewBox="0 0 40 40" fill="none" xmlns="http://www.w3.org/2000/svg">
<rect width="40" height="40" rx="20" fill="white"/>
<path d="M21.5438 18.4565C20.7247 17.6377 19.614 17.1777 18.4558 17.1777C17.2977 17.1777 16.1869 17.6377 15.3678 18.4565L12.2788 21.5444C11.4597 22.3636 10.9995 23.4745 10.9995 24.6329C10.9995 25.7914 11.4597 26.9023 12.2788 27.7215C13.0979 28.5406 14.2089 29.0007 15.3673 29.0007C16.5257 29.0007 17.6367 28.5406 18.4558 27.7215L19.9998 26.1775" stroke="#F77F00" stroke-width="2" stroke-linecap="round" stroke-linejoin="round"/>
<path d="M18.4556 21.5443C19.2747 22.3631 20.3854 22.823 21.5436 22.823C22.7017 22.823 23.8125 22.3631 24.6316 21.5443L27.7206 18.4563C28.5397 17.6372 28.9999 16.5262 28.9999 15.3678C28.9999 14.2094 28.5397 13.0984 27.7206 12.2793C26.9014 11.4602 25.7905 11 24.6321 11C23.4737 11 22.3627 11.4602 21.5436 12.2793L19.9996 13.8233" stroke="#F77F00" stroke-width="2" stroke-linecap="round" stroke-linejoin="round"/>
</svg>
