<svg width="160" height="36" viewBox="0 0 160 36" fill="none" xmlns="http://www.w3.org/2000/svg">
<g clip-path="url(#clip0_313_366)">
<path fill-rule="evenodd" clip-rule="evenodd" d="M-0.0878906 16.3235L22.1645 0.123535L44.4171 16.3235V28.1344L22.1645 11.9344L-0.0878906 28.1344V16.3235ZM14.9344 32.2012L22.1645 26.9375L29.3948 32.2012V36.0386L22.1645 30.7751L14.9344 36.0386V32.2012ZM8.03122 25.9743L22.1645 15.6852L36.298 25.9743V33.4759L22.1645 23.1867L8.03122 33.4759V25.9743Z" fill="#FF3041"/>
<path fill-rule="evenodd" clip-rule="evenodd" d="M22.1646 0.123535L44.4171 16.3235V28.1344L22.1646 11.9344V0.123535ZM22.1646 30.7751V26.9375L29.3949 32.2012V36.0386L22.1646 30.7751ZM22.1646 23.1867V15.6852L36.298 25.9743V33.4759L22.1646 23.1867Z" fill="#FF3041"/>
<path d="M59.4029 15.4559H55.8113C53.5901 15.4559 52.2195 16.48 51.6997 18.5435L50.1401 24.8448H53.4797L54.8817 19.1423C55.0551 18.5121 55.307 18.2916 55.8585 18.2916H58.6941L59.4029 15.4559ZM68.4174 22.2298C69.5044 17.9608 69.5202 17.8662 69.5202 17.3147C69.5202 16.0703 68.7009 15.4559 67.0469 15.4559H59.9421L59.2963 18.0395H65.8653C66.0858 18.0395 66.1962 18.1182 66.1962 18.2758C66.1962 18.3388 66.1648 18.4017 66.023 19.0478H61.0291C59.5955 19.0478 58.7135 19.7567 58.3668 21.1586L57.9887 22.6551C57.91 22.9386 57.8786 23.2066 57.8786 23.4584C57.8786 24.3881 58.4456 24.8448 59.5955 24.8448H64.794C66.8579 24.8448 67.9763 23.9942 68.4174 22.2298ZM65.4874 21.1586L65.377 21.6471C65.2666 22.0723 64.9674 22.2298 64.5421 22.2298H61.6277C61.4544 22.2298 61.36 22.1669 61.36 22.0565C61.36 22.0093 61.36 21.9463 61.4387 21.6785C61.5489 21.3791 61.8011 21.1586 62.1003 21.1586H65.4874ZM81.6694 15.4559H78.3298L76.8961 21.19C76.7702 21.6785 76.5337 21.8517 75.9666 21.8517H73.0365C72.816 21.8517 72.7057 21.7888 72.7057 21.6471C72.7057 21.5997 72.7215 21.5525 72.7373 21.4736L74.2338 15.4559H70.9099L69.3347 21.7572C69.2401 22.1352 69.1929 22.4818 69.1929 22.7968C69.1929 24.1674 70.1064 24.8448 71.9181 24.8448H75.9982C78.2194 24.8448 79.5899 23.8209 80.094 21.7888L81.6694 15.4559ZM139.3 22.3874H135.898L135.299 24.8448H138.702L139.3 22.3874ZM148.772 15.4559H145.18C142.959 15.4559 141.588 16.48 141.068 18.5435L139.509 24.8448H142.848L144.25 19.1423C144.424 18.5121 144.676 18.2916 145.227 18.2916H148.063L148.772 15.4559ZM159.913 15.4559H156.573L155.139 21.19C155.013 21.6785 154.777 21.8517 154.21 21.8517H151.28C151.059 21.8517 150.949 21.7888 150.949 21.6471C150.949 21.5997 150.965 21.5525 150.98 21.4736L152.477 15.4559H149.153L147.578 21.7572C147.483 22.1352 147.436 22.4818 147.436 22.7968C147.436 24.1674 148.35 24.8448 150.161 24.8448H154.241C156.463 24.8448 157.833 23.8209 158.337 21.7888L159.913 15.4559Z" fill="#0C1618"/>
<path d="M92.5429 15.4559H84.4931C83.0436 15.4559 82.2245 16.1175 81.8621 17.5038C81.3581 19.347 81.3581 19.5518 81.3581 19.7881C81.3581 20.6388 81.941 21.0641 83.0909 21.0641H87.7223C87.8957 21.0641 87.9901 21.1271 87.9901 21.269C87.9901 21.3162 87.9901 21.3476 87.9271 21.5839C87.8484 21.8834 87.6594 22.0879 87.36 22.0879H80.8068L80.1294 24.8448H88.321C89.7387 24.8448 90.6209 24.1518 90.9833 22.7496C91.4873 20.7018 91.5188 20.5284 91.5188 20.2765C91.5188 19.4414 90.9361 19.0161 89.7702 19.0161H85.1388C84.9656 19.0161 84.8867 18.9532 84.8867 18.8429C84.8867 18.7956 84.8867 18.7641 84.9497 18.5279C84.9971 18.2916 85.1861 18.0867 85.4539 18.0867H91.8812L92.5429 15.4559ZM99.8244 18.2916C100.108 18.2916 100.25 18.3702 100.25 18.5279C100.25 18.5907 100.266 18.6853 99.6353 21.1114C99.5251 21.5367 99.0997 21.8517 98.6112 21.8517H95.1457L95.8546 19.0004C95.9647 18.5752 96.3586 18.2916 96.7997 18.2916H99.8244ZM102.802 21.7572C103.731 18.1813 103.747 17.9923 103.747 17.4882C103.747 16.1333 102.849 15.4559 101.037 15.4559H96.7525C94.5156 15.4559 93.1449 16.48 92.6409 18.5435L90.3253 27.9009H93.6334L94.4052 24.8448H98.7058C100.959 24.8448 102.25 23.8365 102.802 21.7572ZM113.754 22.2298C114.841 17.9608 114.857 17.8662 114.857 17.3147C114.857 16.0703 114.037 15.4559 112.383 15.4559H105.279L104.633 18.0395H111.202C111.422 18.0395 111.533 18.1182 111.533 18.2758C111.533 18.3388 111.501 18.4017 111.359 19.0478H106.365C104.932 19.0478 104.05 19.7567 103.703 21.1586L103.325 22.6551C103.246 22.9386 103.215 23.2066 103.215 23.4584C103.215 24.3881 103.782 24.8448 104.932 24.8448H110.13C112.194 24.8448 113.313 23.9942 113.754 22.2298ZM110.824 21.1586L110.713 21.6471C110.603 22.0723 110.304 22.2298 109.879 22.2298H106.964C106.791 22.2298 106.696 22.1669 106.696 22.0565C106.696 22.0093 106.696 21.9463 106.775 21.6785C106.885 21.3791 107.137 21.1586 107.437 21.1586H110.824ZM125.808 15.4559H119.586C117.333 15.4559 116.026 16.4642 115.474 18.5435C114.561 22.1511 114.529 22.3242 114.529 22.7968C114.529 24.1674 115.443 24.8448 117.255 24.8448H123.54L124.281 21.8517H118.467C118.2 21.8517 118.074 21.7572 118.074 21.5525C118.074 21.4736 118.089 21.3949 118.672 19.0478C118.783 18.5907 119.239 18.2916 119.665 18.2916H125.1L125.808 15.4559ZM135.91 19.1423C136.367 17.3306 136.383 17.2046 136.383 16.8264C136.383 15.9128 135.816 15.4559 134.681 15.4559H129.451C127.513 15.4559 126.316 16.3223 125.859 18.0709C124.772 22.3087 124.741 22.545 124.741 22.9703C124.741 24.2304 125.56 24.8448 127.12 24.8448H134.351L135.012 22.1825H128.475C128.238 22.1825 128.128 22.1037 128.128 21.9463C128.128 21.8834 128.144 21.8044 128.285 21.19H133.279C134.681 21.19 135.548 20.5442 135.91 19.1423ZM132.728 18.0553C132.87 18.0553 132.948 18.1182 132.948 18.2443C132.948 18.323 132.933 18.4334 132.917 18.5435C132.854 18.8744 132.649 19.1265 132.35 19.1265H128.821L128.947 18.6381C129.057 18.2128 129.357 18.0553 129.719 18.0553H132.728Z" fill="#0C1618"/>
</g>
<defs>
<clipPath id="clip0_313_366">
<rect width="160" height="35.9154" fill="white" transform="translate(0 0.0422974)"/>
</clipPath>
</defs>
</svg>
