<svg width="472" height="106" viewBox="0 0 472 106" fill="none" xmlns="http://www.w3.org/2000/svg">
<g clip-path="url(#clip0_20_144)">
<path fill-rule="evenodd" clip-rule="evenodd" d="M-0.258118 47.9445L65.2702 0.239258L130.799 47.9445V82.7248L65.2702 35.0196L-0.258118 82.7248V47.9445ZM43.979 94.7006L65.2702 79.2004L86.5618 94.7006V106.001L65.2702 90.5012L43.979 106.001V94.7006ZM23.6508 76.3639L65.2702 46.0649L106.89 76.3639V98.4544L65.2702 68.1551L23.6508 98.4544V76.3639Z" fill="#F77F00"/>
<path fill-rule="evenodd" clip-rule="evenodd" d="M65.2701 0.239258L130.799 47.9445V82.7248L65.2701 35.0196V0.239258ZM65.2701 90.5012V79.2004L86.5617 94.7006V106.001L65.2701 90.5012ZM65.2701 68.1551V46.0649L106.89 76.3639V98.4544L65.2701 68.1551Z" fill="#F77F00"/>
<path d="M174.929 45.3895H164.352C157.811 45.3895 153.775 48.4052 152.244 54.4819L147.652 73.0379H157.486L161.615 56.2451C162.125 54.3893 162.867 53.74 164.491 53.74H172.841L174.929 45.3895ZM201.474 65.3371C204.675 52.766 204.722 52.4874 204.722 50.8634C204.722 47.1988 202.309 45.3895 197.438 45.3895H176.516L174.615 52.9977H193.959C194.608 52.9977 194.933 53.2294 194.933 53.6935C194.933 53.8791 194.841 54.0643 194.423 55.9669H179.717C175.496 55.9669 172.898 58.0543 171.877 62.1827L170.764 66.5896C170.532 67.4245 170.44 68.2137 170.44 68.9552C170.44 71.6927 172.11 73.0379 175.496 73.0379H190.804C196.882 73.0379 200.175 70.5328 201.474 65.3371ZM192.846 62.1827L192.521 63.6212C192.196 64.8733 191.315 65.3371 190.062 65.3371H181.48C180.97 65.3371 180.692 65.1519 180.692 64.8268C180.692 64.6878 180.692 64.5022 180.923 63.7138C181.248 62.832 181.991 62.1827 182.872 62.1827H192.846ZM240.498 45.3895H230.664L226.442 62.2753C226.071 63.7138 225.375 64.2236 223.705 64.2236H215.076C214.427 64.2236 214.102 64.0384 214.102 63.6212C214.102 63.4817 214.149 63.3426 214.195 63.1102L218.602 45.3895H208.814L204.175 63.9455C203.897 65.0585 203.758 66.0794 203.758 67.0069C203.758 71.043 206.448 73.0379 211.783 73.0379H223.798C230.339 73.0379 234.375 70.0226 235.859 64.0384L240.498 45.3895ZM410.208 65.8012H400.188L398.425 73.0379H408.445L410.208 65.8012ZM438.099 45.3895H427.522C420.981 45.3895 416.945 48.4052 415.414 54.4819L410.822 73.0379H420.656L424.785 56.2451C425.295 54.3893 426.037 53.74 427.661 53.74H436.011L438.099 45.3895ZM470.907 45.3895H461.072L456.85 62.2753C456.48 63.7138 455.783 64.2236 454.113 64.2236H445.485C444.836 64.2236 444.511 64.0384 444.511 63.6212C444.511 63.4817 444.557 63.3426 444.604 63.1102L449.011 45.3895H439.222L434.584 63.9455C434.306 65.0585 434.166 66.0794 434.166 67.0069C434.166 71.043 436.856 73.0379 442.192 73.0379H454.206C460.747 73.0379 464.783 70.0226 466.268 64.0384L470.907 45.3895Z" fill="#0C1618"/>
<path d="M272.518 45.3895H248.813C244.545 45.3895 242.132 47.3378 241.065 51.4201C239.581 56.8479 239.581 57.4511 239.581 58.1469C239.581 60.652 241.298 61.9045 244.684 61.9045H258.322C258.833 61.9045 259.111 62.0901 259.111 62.5077C259.111 62.6468 259.111 62.7394 258.925 63.4352C258.694 64.317 258.137 64.9194 257.255 64.9194H237.958L235.963 73.0379H260.085C264.26 73.0379 266.858 70.9969 267.925 66.8678C269.409 60.8376 269.502 60.3269 269.502 59.585C269.502 57.1261 267.786 55.8735 264.353 55.8735H250.714C250.204 55.8735 249.972 55.6883 249.972 55.3637C249.972 55.2242 249.972 55.1316 250.158 54.4358C250.297 53.74 250.854 53.1368 251.642 53.1368H270.569L272.518 45.3895ZM293.96 53.74C294.795 53.74 295.213 53.9717 295.213 54.4358C295.213 54.621 295.259 54.8995 293.403 62.0436C293.079 63.2961 291.826 64.2236 290.388 64.2236H280.182L282.27 55.8274C282.594 54.5753 283.754 53.74 285.053 53.74H293.96ZM302.728 63.9455C305.464 53.4153 305.511 52.8586 305.511 51.3744C305.511 47.3843 302.867 45.3895 297.532 45.3895H284.914C278.327 45.3895 274.291 48.4052 272.806 54.4819L265.987 82.0373H275.729L278.002 73.0379H290.666C297.3 73.0379 301.104 70.0687 302.728 63.9455ZM334.979 65.3371C338.18 52.766 338.226 52.4874 338.226 50.8634C338.226 47.1988 335.814 45.3895 330.943 45.3895H310.021L308.12 52.9977H327.464C328.113 52.9977 328.438 53.2294 328.438 53.6935C328.438 53.8791 328.345 54.0643 327.928 55.9669H313.222C309.001 55.9669 306.403 58.0543 305.382 62.1827L304.269 66.5896C304.037 67.4245 303.944 68.2137 303.944 68.9552C303.944 71.6927 305.615 73.0379 309.001 73.0379H324.309C330.386 73.0379 333.68 70.5328 334.979 65.3371ZM326.351 62.1827L326.025 63.6212C325.701 64.8733 324.82 65.3371 323.567 65.3371H314.985C314.475 65.3371 314.196 65.1519 314.196 64.8268C314.196 64.6878 314.196 64.5022 314.428 63.7138C314.753 62.832 315.495 62.1827 316.376 62.1827H326.351ZM370.477 45.3895H352.154C345.52 45.3895 341.669 48.3587 340.046 54.4819C337.355 65.1054 337.262 65.6153 337.262 67.0069C337.262 71.043 339.953 73.0379 345.288 73.0379H363.797L365.978 64.2236H348.86C348.071 64.2236 347.7 63.9455 347.7 63.3426C347.7 63.1102 347.746 62.8785 349.463 55.9669C349.788 54.621 351.133 53.74 352.385 53.74H368.389L370.477 45.3895ZM400.224 56.2451C401.569 50.9103 401.616 50.5391 401.616 49.4253C401.616 46.735 399.946 45.3895 396.606 45.3895H381.204C375.498 45.3895 371.972 47.9411 370.627 53.0903C367.426 65.5695 367.334 66.2653 367.334 67.5179C367.334 71.2286 369.746 73.0379 374.338 73.0379H395.632L397.58 65.198H378.328C377.632 65.198 377.307 64.9659 377.307 64.5022C377.307 64.317 377.354 64.0845 377.771 62.2753H392.477C396.606 62.2753 399.157 60.3734 400.224 56.2451ZM390.853 53.0442C391.271 53.0442 391.502 53.2294 391.502 53.6009C391.502 53.8326 391.456 54.1576 391.41 54.4819C391.224 55.4563 390.621 56.1986 389.74 56.1986H379.348L379.72 54.7605C380.044 53.5079 380.926 53.0442 381.992 53.0442H390.853Z" fill="#0C1618"/>
</g>
<defs>
<clipPath id="clip0_20_144">
<rect width="471.163" height="105.763" fill="white"/>
</clipPath>
</defs>
</svg>
