<svg width="446" height="100" viewBox="0 0 446 100" fill="none" xmlns="http://www.w3.org/2000/svg">
<g clip-path="url(#clip0_313_943)">
<path fill-rule="evenodd" clip-rule="evenodd" d="M-0.244141 45.3325L61.7138 0.226562L123.672 45.3325V78.2178L61.7138 33.1119L-0.244141 78.2178V45.3325ZM41.5827 89.5412L61.7138 74.8855L81.8453 89.5412V100.226L61.7138 85.5705L41.5827 100.226V89.5412ZM22.3621 72.2035L61.7138 43.5554L101.066 72.2035V93.0904L61.7138 64.442L22.3621 93.0904V72.2035Z" fill="white"/>
<path fill-rule="evenodd" clip-rule="evenodd" d="M61.7139 0.226562L123.672 45.3325V78.2178L61.7139 33.1119V0.226562ZM61.7139 85.5705V74.8855L81.8454 89.5412V100.226L61.7139 85.5705ZM61.7139 64.442V43.5554L101.066 72.2035V93.0904L61.7139 64.442Z" fill="white"/>
<path d="M165.463 42.917H155.463C149.278 42.917 145.462 45.7684 144.015 51.514L139.672 69.0589H148.971L152.874 53.1811C153.357 51.4264 154.059 50.8125 155.594 50.8125H163.489L165.463 42.917ZM190.562 61.7777C193.589 49.8916 193.633 49.6282 193.633 48.0926C193.633 44.6277 191.352 42.917 186.746 42.917H166.964L165.166 50.1106H183.456C184.07 50.1106 184.378 50.3297 184.378 50.7685C184.378 50.944 184.29 51.1191 183.895 52.9181H169.991C165.999 52.9181 163.543 54.8918 162.578 58.7952L161.525 62.962C161.306 63.7514 161.219 64.4976 161.219 65.1987C161.219 67.7871 162.797 69.0589 165.999 69.0589H180.474C186.22 69.0589 189.334 66.6903 190.562 61.7777ZM182.404 58.7952L182.097 60.1553C181.789 61.3392 180.956 61.7777 179.772 61.7777H171.657C171.175 61.7777 170.912 61.6026 170.912 61.2953C170.912 61.1638 170.912 60.9883 171.131 60.2429C171.438 59.4091 172.14 58.7952 172.973 58.7952H182.404ZM227.46 42.917H218.161L214.17 58.8828C213.819 60.2429 213.161 60.7249 211.582 60.7249H203.423C202.809 60.7249 202.502 60.5498 202.502 60.1553C202.502 60.0234 202.546 59.8919 202.59 59.6722L206.757 42.917H197.502L193.116 60.4619C192.853 61.5144 192.721 62.4796 192.721 63.3565C192.721 67.1728 195.265 69.0589 200.309 69.0589H211.67C217.854 69.0589 221.67 66.2079 223.074 60.5498L227.46 42.917ZM387.923 62.2166H378.449L376.782 69.0589H386.256L387.923 62.2166ZM414.294 42.917H404.293C398.109 42.917 394.293 45.7684 392.845 51.514L388.503 69.0589H397.802L401.705 53.1811C402.188 51.4264 402.89 50.8125 404.425 50.8125H412.32L414.294 42.917ZM445.314 42.917H436.016L432.024 58.8828C431.674 60.2429 431.015 60.7249 429.436 60.7249H421.278C420.664 60.7249 420.357 60.5498 420.357 60.1553C420.357 60.0234 420.401 59.8919 420.445 59.6722L424.611 42.917H415.357L410.971 60.4619C410.708 61.5144 410.576 62.4796 410.576 63.3565C410.576 67.1728 413.119 69.0589 418.164 69.0589H429.524C435.709 69.0589 439.525 66.2079 440.928 60.5498L445.314 42.917Z" fill="white"/>
<path d="M257.735 42.917H235.322C231.286 42.917 229.005 44.7592 227.996 48.619C226.593 53.7511 226.593 54.3214 226.593 54.9793C226.593 57.3479 228.216 58.5322 231.418 58.5322H244.313C244.796 58.5322 245.059 58.7076 245.059 59.1025C245.059 59.234 245.059 59.3216 244.883 59.9795C244.664 60.8132 244.138 61.3828 243.304 61.3828H225.058L223.172 69.0589H245.98C249.927 69.0589 252.384 67.1292 253.393 63.225C254.796 57.5234 254.884 57.0406 254.884 56.3391C254.884 54.0141 253.261 52.8298 250.015 52.8298H237.12C236.638 52.8298 236.418 52.6547 236.418 52.3477C236.418 52.2158 236.418 52.1283 236.593 51.4704C236.725 50.8125 237.251 50.2422 237.997 50.2422H255.893L257.735 42.917ZM278.009 50.8125C278.798 50.8125 279.193 51.0316 279.193 51.4704C279.193 51.6455 279.237 51.9089 277.483 58.6637C277.176 59.848 275.991 60.7249 274.631 60.7249H264.982L266.956 52.7862C267.263 51.6023 268.359 50.8125 269.588 50.8125H278.009ZM286.299 60.4619C288.887 50.5055 288.931 49.9791 288.931 48.5758C288.931 44.8031 286.431 42.917 281.386 42.917H269.456C263.228 42.917 259.411 45.7684 258.008 51.514L251.561 77.568H260.771L262.92 69.0589H274.895C281.167 69.0589 284.764 66.2515 286.299 60.4619ZM316.793 61.7777C319.819 49.8916 319.863 49.6282 319.863 48.0926C319.863 44.6277 317.583 42.917 312.977 42.917H293.195L291.397 50.1106H309.688C310.302 50.1106 310.609 50.3297 310.609 50.7685C310.609 50.944 310.521 51.1191 310.126 52.9181H296.222C292.23 52.9181 289.774 54.8918 288.809 58.7952L287.756 62.962C287.537 63.7514 287.449 64.4976 287.449 65.1987C287.449 67.7871 289.029 69.0589 292.23 69.0589H306.704C312.451 69.0589 315.565 66.6904 316.793 61.7777ZM308.635 58.7952L308.327 60.1553C308.021 61.3392 307.188 61.7777 306.003 61.7777H297.888C297.406 61.7777 297.143 61.6026 297.143 61.2953C297.143 61.1638 297.143 60.9883 297.362 60.2429C297.669 59.4091 298.371 58.7952 299.204 58.7952H308.635ZM350.357 42.917H333.032C326.759 42.917 323.119 45.7244 321.584 51.514C319.04 61.5587 318.952 62.0407 318.952 63.3565C318.952 67.1728 321.496 69.0589 326.54 69.0589H344.041L346.103 60.7249H329.917C329.172 60.7249 328.821 60.4619 328.821 59.8919C328.821 59.6722 328.865 59.4531 330.488 52.9181C330.795 51.6455 332.067 50.8125 333.251 50.8125H348.383L350.357 42.917ZM378.483 53.1811C379.755 48.1369 379.799 47.786 379.799 46.7329C379.799 44.1892 378.22 42.917 375.062 42.917H360.5C355.104 42.917 351.771 45.3295 350.499 50.1982C347.473 61.9975 347.385 62.6554 347.385 63.8397C347.385 67.3483 349.665 69.0589 354.008 69.0589H374.141L375.983 61.6462H357.78C357.122 61.6462 356.815 61.4268 356.815 60.9883C356.815 60.8132 356.859 60.5934 357.254 58.8828H371.158C375.062 58.8828 377.474 57.0845 378.483 53.1811ZM369.623 50.1546C370.018 50.1546 370.237 50.3297 370.237 50.681C370.237 50.9 370.193 51.2074 370.149 51.514C369.974 52.4353 369.404 53.1371 368.57 53.1371H358.745L359.096 51.7774C359.403 50.5931 360.236 50.1546 361.245 50.1546H369.623Z" fill="white"/>
</g>
<defs>
<clipPath id="clip0_313_943">
<rect width="445.492" height="100" fill="white"/>
</clipPath>
</defs>
</svg>
