<svg width="40" height="40" viewBox="0 0 40 40" fill="none" xmlns="http://www.w3.org/2000/svg">
<rect width="40" height="40" rx="20" fill="white"/>
<path d="M22.0451 24.5979L21.9015 24.1256C22.9768 23.7987 23.9856 23.3838 24.8446 22.8404L24.854 22.8345L24.8636 22.829C25.2505 22.6076 25.4284 21.9826 25.1153 21.4615L25.1152 21.4613C24.8439 21.0094 24.2586 20.8504 23.7018 21.1981L23.6974 21.2008L23.6974 21.2008C22.5803 21.8825 21.297 22.2431 19.9884 22.2431C18.6798 22.2431 17.3965 21.8825 16.2794 21.2008L16.275 21.1981L16.2751 21.1981C15.7402 20.8641 15.1895 20.9893 14.8617 21.4611C14.5816 22.0109 14.7493 22.6104 15.146 22.8217L15.1563 22.8272L15.1664 22.8332C16.0923 23.3836 17.0831 23.8167 18.1159 24.1226L18.9452 24.3682L18.3185 24.9643L15.3611 27.7773C14.9711 28.2092 14.9876 28.7963 15.3439 29.1666C15.5999 29.3789 15.8644 29.464 16.0579 29.464C16.375 29.464 16.6253 29.3618 16.8061 29.1817C16.8065 29.1813 16.8069 29.1809 16.8073 29.1804L19.6304 26.3104L19.981 25.954L20.3375 26.3045L23.2595 29.1775L23.2839 29.2015L23.3048 29.2286C23.561 29.5608 24.1593 29.6355 24.6153 29.1804L22.0451 24.5979ZM22.0451 24.5979L21.6925 24.9567L21.6935 24.9577L21.9056 25.1696L21.9109 25.1679L24.6106 27.7771C25.0063 28.2132 24.9853 28.8102 24.6156 29.1802L22.0451 24.5979ZM22.5939 15.2204C22.5951 13.7814 21.5431 12.517 19.9859 12.517C18.4851 12.517 17.3799 13.7754 17.3799 15.22C17.3799 16.6923 18.5139 17.826 19.9869 17.826C21.5153 17.826 22.5937 16.6849 22.5939 15.2204ZM22.5939 15.2204L22.0939 15.22H22.5939C22.5939 15.2201 22.5939 15.2203 22.5939 15.2204ZM20.0153 19.8419L20.0006 19.841H19.9859C17.4337 19.841 15.3129 17.7155 15.3129 15.219C15.3129 12.6204 17.4398 10.5 19.9869 10.5C22.6237 10.5 24.6595 12.6128 24.6599 15.2182C24.6551 16.4483 24.1622 17.6263 23.2895 18.4932C22.4197 19.3573 21.2436 19.842 20.018 19.842L20.0153 19.8419Z" fill="#F77F00" stroke="#F77F00"/>
</svg>
