<svg width="98" height="98" viewBox="0 0 98 98" fill="none" xmlns="http://www.w3.org/2000/svg">
<path d="M83.3009 66.6994C80.4581 69.5423 75.8483 69.5423 73.0054 66.6994L60.4542 54.1477C57.6108 51.3048 57.6108 46.6954 60.4542 43.8524L73.0054 31.301C75.8483 28.4579 80.4581 28.4579 83.3009 31.301L95.8527 43.8524C98.6955 46.6954 98.6955 51.3048 95.8527 54.1477L83.3009 66.6994ZM24.9948 66.6994C22.1518 69.5423 17.5423 69.5423 14.6993 66.6994L2.14789 54.1477C-0.695127 51.3048 -0.695132 46.6954 2.14789 43.8524L14.6993 31.301C17.5423 28.4579 22.1518 28.4579 24.9948 31.301L37.5463 43.8524C40.3892 46.6954 40.3892 51.3048 37.5463 54.1477L24.9948 66.6994ZM54.1481 95.8522C51.3048 98.6955 46.6954 98.6955 43.8524 95.8522L31.3009 83.3009C28.458 80.4581 28.458 75.8483 31.3009 73.0055L43.8524 60.4542C46.6954 57.6109 51.3048 57.6109 54.1481 60.4542L66.6994 73.0055C69.5422 75.8483 69.5422 80.4581 66.6994 83.3009L54.1481 95.8522ZM54.1481 37.5462C51.3048 40.3892 46.6954 40.3893 43.8524 37.5462L31.3009 24.9948C28.458 22.1518 28.458 17.5424 31.3009 14.6993L43.8524 2.14789C46.6954 -0.695127 51.3048 -0.695132 54.1481 2.14789L66.6994 14.6993C69.5422 17.5424 69.5422 22.1518 66.6994 24.9948L54.1481 37.5462Z" fill="#004643"/>
</svg>
