<svg width="104" height="104" viewBox="0 0 104 104" fill="none" xmlns="http://www.w3.org/2000/svg">
<g clip-path="url(#clip0_57_476)">
<path fill-rule="evenodd" clip-rule="evenodd" d="M26 52C40.3594 52 52 40.3594 52 26C52 40.3594 63.6407 52 78 52C63.6407 52 52 63.6407 52 78C52 63.6407 40.3594 52 26 52ZM26 52C11.6406 52 0 63.6407 0 78C0 92.3593 11.6406 104 26 104C40.3594 104 52 92.3593 52 78C52 92.3593 63.6407 104 78 104C92.3593 104 104 92.3593 104 78C104 63.6407 92.3593 52 78 52C92.3593 52 104 40.3594 104 26C104 11.6406 92.3593 0 78 0C63.6407 0 52 11.6406 52 26C52 11.6406 40.3594 0 26 0C11.6406 0 0 11.6406 0 26C0 40.3594 11.6406 52 26 52Z" fill="#FF3041"/>
</g>
<defs>
<clipPath id="clip0_57_476">
<rect width="104" height="104" fill="white"/>
</clipPath>
</defs>
</svg>
