<svg width="104" height="104" viewBox="0 0 104 104" fill="none" xmlns="http://www.w3.org/2000/svg">
<path fill-rule="evenodd" clip-rule="evenodd" d="M66.8737 8.49404C60.2292 -2.83135 43.8552 -2.83135 37.2103 8.49404L36.969 8.90536C33.9035 14.1301 28.3151 17.3566 22.2576 17.399L21.7807 17.4023C8.65018 17.4943 0.463293 31.6744 6.9489 43.0917L7.18446 43.5064C10.1765 48.7736 10.1765 55.2266 7.18446 60.4937L6.9489 60.9081C0.463293 72.3258 8.65018 86.5056 21.7807 86.5977L22.2576 86.6008C28.3151 86.6434 33.9035 89.87 36.969 95.0945L37.2103 95.5058C43.8552 106.831 60.2292 106.831 66.8737 95.5058L67.115 95.0945C70.1809 89.87 75.7689 86.6434 81.8263 86.6008L82.3037 86.5977C95.4342 86.5056 103.621 72.3258 97.1351 60.9081L96.8996 60.4937C93.9075 55.2266 93.9075 48.7736 96.8996 43.5064L97.1351 43.0917C103.621 31.6744 95.4342 17.4943 82.3037 17.4023L81.8263 17.399C75.7689 17.3566 70.1809 14.1301 67.115 8.90536L66.8737 8.49404ZM52.0423 77.7941C66.2877 77.7941 77.8364 66.2459 77.8364 52C77.8364 37.7542 66.2877 26.2057 52.0423 26.2057C37.7963 26.2057 26.2478 37.7542 26.2478 52C26.2478 66.2459 37.7963 77.7941 52.0423 77.7941Z" fill="#F77F00"/>
</svg>
