<svg width="156" height="156" viewBox="0 0 156 156" fill="none" xmlns="http://www.w3.org/2000/svg">
<path d="M72.9438 2.12371C75.8872 -0.276914 80.1128 -0.276914 83.056 2.12371L89.4024 7.29988C91.4 8.92852 94.0592 9.49556 96.5464 8.82316L104.431 6.69204C108.093 5.70237 111.946 7.41988 113.658 10.8045L117.383 18.1722C118.543 20.465 120.733 22.0613 123.27 22.4633L131.374 23.7471C135.107 24.3386 137.918 27.4631 138.111 31.2385L138.538 39.5506C138.669 42.1063 140.015 44.4451 142.159 45.8425L149.092 50.3615C152.249 52.4196 153.542 56.4025 152.194 59.9227L149.212 67.7171C148.299 70.1016 148.58 72.7784 149.966 74.922L154.494 81.9191C156.54 85.0815 156.103 89.2423 153.445 91.9111L147.581 97.7983C145.778 99.6087 144.947 102.171 145.347 104.695L146.652 112.934C147.242 116.661 145.146 120.294 141.625 121.651L133.937 124.611C131.544 125.533 129.738 127.545 129.079 130.023L126.95 138.037C125.978 141.698 122.573 144.175 118.791 143.973L110.624 143.536C108.054 143.398 105.574 144.505 103.962 146.511L98.8112 152.917C96.432 155.877 92.3008 156.756 88.9224 155.021L81.6536 151.289C79.36 150.113 76.64 150.113 74.3465 151.289L67.0772 155.021C63.6995 156.756 59.5681 155.877 57.189 152.917L52.0384 146.511C50.4257 144.505 47.9464 143.398 45.3763 143.536L37.2089 143.973C33.4272 144.175 30.0217 141.698 29.0496 138.037L26.9206 130.023C26.2624 127.545 24.4562 125.533 22.0634 124.611L14.3753 121.651C10.8533 120.294 8.7582 116.661 9.34844 112.934L10.653 104.695C11.0526 102.171 10.2225 99.6087 8.41924 97.7983L2.55498 91.9111C-0.103052 89.2423 -0.539884 85.0815 1.50603 81.9191L6.03324 74.922C7.4202 72.7784 7.7006 70.1016 6.78812 67.7171L3.80533 59.9227C2.45824 56.4025 3.75089 52.4196 6.90836 50.3615L13.8412 45.8425C15.985 44.4451 17.3309 42.1063 17.462 39.5506L17.8886 31.2385C18.0824 27.4631 20.8924 24.3386 24.6263 23.7471L32.7295 22.4633C35.2671 22.0613 37.4572 20.465 38.6167 18.1722L42.3427 10.8045C44.0544 7.41988 47.9076 5.70237 51.5691 6.69204L59.4536 8.82316C61.9412 9.49556 64.6004 8.92852 66.5972 7.29988L72.9438 2.12371Z" fill="#FF3041"/>
</svg>
