<svg width="22" height="18" viewBox="0 0 22 18" fill="none" xmlns="http://www.w3.org/2000/svg">
<path d="M11.0001 0.200195C7.6513 0.200195 3.30479 1.03926 3.30479 1.03926L3.29385 1.05176C1.76863 1.29569 0.600098 2.60629 0.600098 4.2002V9.0002V9.00176V13.8002V13.8018C0.601586 14.563 0.874394 15.2988 1.36954 15.8769C1.86468 16.4551 2.54972 16.8379 3.30166 16.9564L3.30479 16.9611C3.30479 16.9611 7.6513 17.8018 11.0001 17.8018C14.3489 17.8018 18.6954 16.9611 18.6954 16.9611L18.697 16.9596C19.4497 16.8413 20.1356 16.4582 20.6311 15.8793C21.1266 15.3005 21.3993 14.5638 21.4001 13.8018V13.8002V9.00176V9.0002V4.2002C21.399 3.4387 21.1263 2.70256 20.6312 2.12404C20.136 1.54553 19.4507 1.16256 18.6985 1.04395L18.6954 1.03926C18.6954 1.03926 14.3489 0.200195 11.0001 0.200195ZM8.6001 5.31895L15.0001 9.0002L8.6001 12.6814V5.31895Z" fill="#F77F00"/>
</svg>
