<svg width="12" height="20" viewBox="0 0 12 20" fill="none" xmlns="http://www.w3.org/2000/svg">
<path d="M8.04506 14.5979L7.90148 14.1256C8.97682 13.7987 9.98565 13.3838 10.8446 12.8404L10.854 12.8345L10.8636 12.829C11.2505 12.6076 11.4284 11.9826 11.1153 11.4615L11.1152 11.4613C10.8439 11.0094 10.2586 10.8504 9.70175 11.1981L9.69738 11.2008L9.69736 11.2008C8.58032 11.8825 7.29702 12.2431 5.9884 12.2431C4.67979 12.2431 3.39648 11.8825 2.27944 11.2008L2.27504 11.1981L2.27505 11.1981C1.7402 10.8641 1.18948 10.9893 0.861734 11.4611C0.581596 12.0109 0.749343 12.6104 1.14597 12.8217L1.15632 12.8272L1.1664 12.8332C2.0923 13.3836 3.08306 13.8167 4.11587 14.1226L4.94522 14.3682L4.3185 14.9643L1.36112 17.7773C0.97112 18.2092 0.987614 18.7963 1.34387 19.1666C1.59992 19.3789 1.86443 19.464 2.0579 19.464C2.37505 19.464 2.62526 19.3618 2.80607 19.1817C2.8065 19.1813 2.80692 19.1809 2.80735 19.1804L5.63045 16.3104L5.981 15.954L6.33745 16.3045L9.25945 19.1775L9.28389 19.2015L9.30481 19.2286C9.56102 19.5608 10.1593 19.6355 10.6153 19.1804L8.04506 14.5979ZM8.04506 14.5979L7.69252 14.9567L7.69352 14.9577L7.90556 15.1696L7.91094 15.1679L10.6106 17.7771C11.0063 18.2132 10.9853 18.8102 10.6156 19.1802L8.04506 14.5979ZM8.5939 5.22042C8.5951 3.78139 7.54315 2.517 5.9859 2.517C4.48514 2.517 3.3799 3.77538 3.3799 5.22C3.3799 6.6923 4.51392 7.826 5.9869 7.826C7.51528 7.826 8.5937 6.68493 8.5939 5.22042ZM8.5939 5.22042L8.0939 5.22H8.5939C8.5939 5.22014 8.5939 5.22028 8.5939 5.22042ZM6.01528 9.84186L6.0006 9.841H5.9859C3.43371 9.841 1.3129 7.71553 1.3129 5.219C1.3129 2.62039 3.43979 0.5 5.9869 0.5C8.62366 0.5 10.6595 2.61279 10.6599 5.21818C10.6551 6.44832 10.1622 7.62626 9.28945 8.49325C8.41969 9.35728 7.24359 9.84202 6.01798 9.84202L6.01528 9.84186Z" fill="#F77F00" stroke="#F77F00"/>
</svg>
