<svg width="24" height="14" viewBox="0 0 24 14" fill="none" xmlns="http://www.w3.org/2000/svg">
<path d="M19.5108 6.58404L19.916 6.877L19.5108 6.58405L19.5021 6.59609L19.4941 6.60862C19.4907 6.61402 19.4872 6.61948 19.4837 6.62499C19.3606 6.81834 19.1925 7.08222 19.1675 7.38975C19.1387 7.74501 19.2973 8.04642 19.5182 8.327C19.6841 8.55157 19.9986 8.8539 20.3027 9.14624C20.3182 9.1611 20.3336 9.17593 20.349 9.19073C20.6934 9.52196 21.0583 9.87433 21.3463 10.2084L21.3462 10.2085L21.354 10.2173C21.9144 10.8373 22.3968 11.3987 22.7664 11.8898C23.1397 12.3859 23.369 12.7733 23.4627 13.0532C23.54 13.3186 23.4769 13.3891 23.4718 13.3948L23.4716 13.395C23.4496 13.42 23.3447 13.5 23.03 13.5H20.405C20.2271 13.5 20.1002 13.4669 19.9807 13.4055C19.8507 13.3387 19.7067 13.2268 19.5101 13.0331C19.3497 12.8752 19.1745 12.6838 18.9548 12.4436C18.9021 12.3861 18.8469 12.3257 18.7887 12.2624C18.4927 11.9401 18.1341 11.5561 17.6804 11.1104L17.6805 11.1103L17.6737 11.1039C16.1059 9.61954 15.3137 9.3 14.715 9.3C14.4438 9.3 14.0506 9.32631 13.7864 9.64868C13.6631 9.79915 13.6027 9.97404 13.5703 10.1385C13.5382 10.3022 13.528 10.4866 13.528 10.684V12.997C13.528 13.2623 13.485 13.2904 13.4441 13.3173L13.4413 13.3191C13.3178 13.4004 12.9879 13.5 12.153 13.5C9.56505 13.5 6.64995 11.949 4.55286 8.99177L4.55288 8.99175L4.54954 8.98715C2.94436 6.77738 1.92701 4.84351 1.31258 3.38658C1.00525 2.65783 0.799644 2.05059 0.671686 1.58987C0.539652 1.11447 0.5 0.829265 0.5 0.73C0.5 0.664425 0.506738 0.622603 0.514276 0.597342C0.520476 0.576568 0.525725 0.571429 0.526666 0.570508C0.526706 0.570469 0.526738 0.570437 0.526763 0.570412L0.526805 0.570369C0.527926 0.569203 0.543351 0.553174 0.596316 0.536107C0.653287 0.51775 0.748854 0.5 0.9 0.5H3.527C3.78843 0.5 3.88075 0.554241 3.93542 0.603804C4.01437 0.675378 4.10648 0.82189 4.22681 1.16744L4.22703 1.16807C4.88212 3.04105 5.7617 4.79794 6.59681 6.09406C7.01346 6.74071 7.42791 7.28655 7.80747 7.67727C7.99678 7.87214 8.18866 8.04016 8.3782 8.16272C8.55885 8.27953 8.78751 8.388 9.039 8.388C9.15363 8.388 9.30569 8.37627 9.45858 8.30851C9.62559 8.2345 9.75449 8.11143 9.84328 7.95396C9.99468 7.68546 10.026 7.31617 10.026 6.904V3.106V3.09214L10.0252 3.0783C9.97073 2.09606 9.66991 1.53001 9.3684 1.12724C9.30246 1.03916 9.23764 0.960365 9.18401 0.895178L9.17364 0.882573C9.11481 0.811019 9.07381 0.760366 9.04119 0.714017C8.98286 0.631156 8.98295 0.605595 8.983 0.593903L8.983 0.593C8.983 0.59304 8.983 0.591656 8.98358 0.588916C8.98417 0.586173 8.98528 0.582352 8.9873 0.577706C8.9914 0.568275 8.99858 0.556955 9.00987 0.545935C9.02899 0.527268 9.06968 0.5 9.151 0.5H13.279C13.3772 0.5 13.4262 0.513305 13.4458 0.521032C13.4516 0.523335 13.4547 0.525051 13.4558 0.525755C13.456 0.52597 13.4562 0.526294 13.4566 0.526757C13.46 0.531347 13.4773 0.557265 13.4929 0.629075C13.5087 0.701725 13.519 0.804537 13.519 0.948V6.057C13.519 6.7165 13.8547 7.295 14.437 7.295C15.0071 7.295 15.4267 6.93382 16.0116 6.35845L16.0214 6.34884L16.0306 6.3387C17.0163 5.25658 17.8455 3.89746 18.4233 2.8246C18.7138 2.28523 18.9441 1.81198 19.1021 1.47296C19.1811 1.30335 19.2421 1.16707 19.2837 1.07259C19.3044 1.02534 19.3203 0.988526 19.3312 0.9632L19.3436 0.933952L19.3465 0.927079C19.4077 0.787594 19.48 0.688685 19.5686 0.622865C19.6522 0.560842 19.7879 0.5 20.03 0.5H22.655C22.8965 0.5 22.9822 0.544882 23.004 0.559962C23.0064 0.569338 23.0102 0.590934 23.0074 0.629649L22.9608 0.839844C22.895 1.13685 22.667 1.63804 22.3191 2.26626C21.9803 2.87793 21.5562 3.56105 21.1384 4.20357C20.7214 4.84503 20.3141 5.44068 20.0108 5.87629C19.8593 6.09395 19.734 6.27134 19.6467 6.39412C19.603 6.4555 19.5689 6.50322 19.5457 6.53547L19.5195 6.57203L19.5129 6.58119L19.5113 6.58342L19.5109 6.58393L19.5108 6.58404Z" fill="#F77F00" stroke="#F77F00"/>
</svg>
