<svg width="13" height="20" viewBox="0 0 13 20" fill="none" xmlns="http://www.w3.org/2000/svg">
<path d="M8.54555 14.5979L8.40197 14.1256C9.47731 13.7987 10.4861 13.3838 11.3451 12.8404L11.3544 12.8345L11.364 12.829C11.751 12.6076 11.9289 11.9826 11.6158 11.4615L11.6157 11.4613C11.3444 11.0094 10.7591 10.8504 10.2022 11.1981L10.1979 11.2008L10.1979 11.2008C9.08081 11.8825 7.79751 12.2431 6.48889 12.2431C5.18027 12.2431 3.89697 11.8825 2.77993 11.2008L2.77553 11.1981L2.77554 11.1981C2.24069 10.8641 1.68997 10.9893 1.36222 11.4611C1.08208 12.0109 1.24983 12.6104 1.64646 12.8217L1.65681 12.8272L1.66689 12.8332C2.59278 13.3836 3.58355 13.8167 4.61636 14.1226L5.44571 14.3682L4.81899 14.9643L1.86161 17.7773C1.47161 18.2092 1.4881 18.7963 1.84437 19.1666C2.10041 19.3789 2.36492 19.464 2.55839 19.464C2.87552 19.464 3.12572 19.3618 3.30654 19.1817C3.30697 19.1813 3.3074 19.1809 3.30784 19.1804L6.13093 16.3104L6.48149 15.954L6.83794 16.3045L9.75994 19.1775L9.78437 19.2015L9.8053 19.2286C10.0615 19.5608 10.6598 19.6355 11.1158 19.1804L8.54555 14.5979ZM8.54555 14.5979L8.19301 14.9567L8.19401 14.9577L8.40605 15.1696L8.41143 15.1679L11.1111 17.7771C11.5068 18.2132 11.4858 18.8102 11.1161 19.1802L8.54555 14.5979ZM9.09439 5.22042C9.09559 3.78139 8.04364 2.517 6.48639 2.517C4.98563 2.517 3.88039 3.77538 3.88039 5.22C3.88039 6.6923 5.01441 7.826 6.48739 7.826C8.01576 7.826 9.09419 6.68493 9.09439 5.22042ZM9.09439 5.22042L8.59439 5.22H9.09439C9.09439 5.22014 9.09439 5.22028 9.09439 5.22042ZM6.51576 9.84186L6.50109 9.841H6.48639C3.93419 9.841 1.81339 7.71553 1.81339 5.219C1.81339 2.62039 3.94028 0.5 6.48739 0.5C9.12414 0.5 11.16 2.61279 11.1604 5.21818C11.1556 6.44832 10.6627 7.62626 9.78994 8.49325C8.92018 9.35728 7.74408 9.84202 6.51847 9.84202L6.51576 9.84186Z" fill="#004643" stroke="#004643"/>
</svg>
