<svg width="20" height="23" viewBox="0 0 20 23" fill="none" xmlns="http://www.w3.org/2000/svg">
<path d="M12.44 0.980469H8C3.66 0.980469 0 4.44047 0 8.53047V12.0205C0 15.4105 1.02 17.6105 3.12 18.7405V21.0405C3.12 21.8205 3.59 22.5205 4.3 22.8205C4.55 22.9305 4.8 22.9805 5.06 22.9805C5.55 22.9805 6.04 22.7905 6.41 22.4305L9.37 19.5705H12.44C16.61 19.5705 20 16.1805 20 12.0205V8.53047C20 4.36047 16.61 0.980469 12.44 0.980469ZM14.82 14.6905C14.67 14.8905 14.49 15.1105 14.31 15.3305C13.79 15.9305 12.94 16.1505 12.2 15.8405C10.51 15.1505 8.49 13.7505 7.21 12.5705C6.17 11.6005 4.93 9.34047 4.19 7.88047C3.8 7.10047 4.02 6.16047 4.72 5.62047L5.3 5.17047C5.72 4.85047 6.32 4.94047 6.62 5.37047L7.76 6.98047C8.03 7.37047 7.96 7.90047 7.59 8.20047L7.28 8.46047C7.01 8.69047 6.89 9.05047 6.97 9.39047C7.12 9.95047 7.52 10.7705 8.24 11.5405C9.11 12.4705 9.87 12.7805 10.34 12.8805C10.65 12.9405 10.96 12.8205 11.17 12.5905L11.48 12.2405C11.79 11.8505 12.35 11.7705 12.75 12.0605L14.62 13.4105C15.04 13.7105 15.12 14.2805 14.82 14.6905ZM10.5 8.48047C10.5 8.20047 10.72 7.98047 11 7.98047C12.2 7.98047 13 8.78047 13 9.98047C13 10.2605 12.78 10.4805 12.5 10.4805C12.22 10.4805 12 10.2605 12 9.98047C12 9.34047 11.65 8.98047 11 8.98047C10.72 8.98047 10.5 8.76047 10.5 8.48047ZM14.5 10.4805C14.22 10.4805 14 10.2605 14 9.98047C14 8.47047 12.51 6.98047 11 6.98047C10.72 6.98047 10.5 6.76047 10.5 6.48047C10.5 6.20047 10.72 5.98047 11 5.98047C13.06 5.98047 15 7.92047 15 9.98047C15 10.2605 14.78 10.4805 14.5 10.4805ZM16.5 10.4805C16.22 10.4805 16 10.2605 16 9.98047C16 7.61047 13.95 4.98047 11 4.98047C10.72 4.98047 10.5 4.76047 10.5 4.48047C10.5 4.20047 10.72 3.98047 11 3.98047C14.54 3.98047 17 7.14047 17 9.98047C17 10.2605 16.78 10.4805 16.5 10.4805Z" fill="#F77F00"/>
</svg>
