<svg width="25" height="24" viewBox="0 0 25 24" fill="none" xmlns="http://www.w3.org/2000/svg">
<path d="M23.8225 0.698379C23.2222 0.0823177 22.3338 -0.147195 21.5055 0.0943974L2.1896 5.71143C1.31564 5.95423 0.696185 6.65123 0.529316 7.53666C0.358846 8.4378 0.95429 9.58175 1.73221 10.0601L7.77188 13.7722C8.39134 14.1527 9.19086 14.0573 9.70347 13.5402L16.6195 6.58116C16.9676 6.21877 17.5439 6.21877 17.892 6.58116C18.2402 6.93147 18.2402 7.49922 17.892 7.8616L10.964 14.8219C10.4502 15.3377 10.3541 16.141 10.7323 16.7643L14.4226 22.8645C14.8548 23.5893 15.5991 24 16.4154 24C16.5115 24 16.6195 24 16.7155 23.9879C17.6519 23.8671 18.3962 23.2269 18.6723 22.3209L24.3987 3.02975C24.6508 2.20833 24.4227 1.31444 23.8225 0.698379Z" fill="#004643"/>
</svg>
