<svg width="21" height="23" viewBox="0 0 21 23" fill="none" xmlns="http://www.w3.org/2000/svg">
<path d="M12.94 0.97998H8.5C4.16 0.97998 0.5 4.43998 0.5 8.52998V12.02C0.5 15.41 1.52 17.61 3.62 18.74V21.04C3.62 21.82 4.09 22.52 4.8 22.82C5.05 22.93 5.3 22.98 5.56 22.98C6.05 22.98 6.54 22.79 6.91 22.43L9.87 19.57H12.94C17.11 19.57 20.5 16.18 20.5 12.02V8.52998C20.5 4.35998 17.11 0.97998 12.94 0.97998ZM15.32 14.69C15.17 14.89 14.99 15.11 14.81 15.33C14.29 15.93 13.44 16.15 12.7 15.84C11.01 15.15 8.99 13.75 7.71 12.57C6.67 11.6 5.43 9.33998 4.69 7.87998C4.3 7.09998 4.52 6.15998 5.22 5.61998L5.8 5.16998C6.22 4.84998 6.82 4.93998 7.12 5.36998L8.26 6.97998C8.53 7.36998 8.46 7.89998 8.09 8.19998L7.78 8.45998C7.51 8.68998 7.39 9.04998 7.47 9.38998C7.62 9.94998 8.02 10.77 8.74 11.54C9.61 12.47 10.37 12.78 10.84 12.88C11.15 12.94 11.46 12.82 11.67 12.59L11.98 12.24C12.29 11.85 12.85 11.77 13.25 12.06L15.12 13.41C15.54 13.71 15.62 14.28 15.32 14.69ZM11 8.47998C11 8.19998 11.22 7.97998 11.5 7.97998C12.7 7.97998 13.5 8.77998 13.5 9.97998C13.5 10.26 13.28 10.48 13 10.48C12.72 10.48 12.5 10.26 12.5 9.97998C12.5 9.33998 12.15 8.97998 11.5 8.97998C11.22 8.97998 11 8.75998 11 8.47998ZM15 10.48C14.72 10.48 14.5 10.26 14.5 9.97998C14.5 8.46998 13.01 6.97998 11.5 6.97998C11.22 6.97998 11 6.75998 11 6.47998C11 6.19998 11.22 5.97998 11.5 5.97998C13.56 5.97998 15.5 7.91998 15.5 9.97998C15.5 10.26 15.28 10.48 15 10.48ZM17 10.48C16.72 10.48 16.5 10.26 16.5 9.97998C16.5 7.60998 14.45 4.97998 11.5 4.97998C11.22 4.97998 11 4.75998 11 4.47998C11 4.19998 11.22 3.97998 11.5 3.97998C15.04 3.97998 17.5 7.13998 17.5 9.97998C17.5 10.26 17.28 10.48 17 10.48Z" fill="#004643"/>
</svg>
