<svg width="21" height="20" viewBox="0 0 21 20" fill="none" xmlns="http://www.w3.org/2000/svg">
<path d="M12.0443 8.45608C11.2252 7.63732 10.1144 7.17737 8.9563 7.17737C7.79815 7.17737 6.68741 7.63732 5.8683 8.45608L2.7793 11.5441C1.96018 12.3632 1.5 13.4742 1.5 14.6326C1.5 15.791 1.96018 16.902 2.7793 17.7211C3.59842 18.5402 4.70939 19.0004 5.8678 19.0004C7.02621 19.0004 8.13718 18.5402 8.9563 17.7211L10.5003 16.1771" stroke="#004643" stroke-width="2" stroke-linecap="round" stroke-linejoin="round"/>
<path d="M8.95605 11.5441C9.77516 12.3628 10.8859 12.8228 12.0441 12.8228C13.2022 12.8228 14.3129 12.3628 15.1321 11.5441L18.2211 8.45606C19.0402 7.63693 19.5004 6.52597 19.5004 5.36755C19.5004 4.20914 19.0402 3.09818 18.2211 2.27905C17.4019 1.45993 16.291 0.999756 15.1326 0.999756C13.9741 0.999756 12.8632 1.45993 12.0441 2.27905L10.5001 3.82305" stroke="#004643" stroke-width="2" stroke-linecap="round" stroke-linejoin="round"/>
</svg>
