<svg width="21" height="18" viewBox="0 0 21 18" fill="none" xmlns="http://www.w3.org/2000/svg">
<path d="M10.4996 0.199951C7.15081 0.199951 2.8043 1.03901 2.8043 1.03901L2.79336 1.05151C1.26814 1.29544 0.0996094 2.60605 0.0996094 4.19995V8.99995V9.00151V13.8V13.8015C0.101098 14.5627 0.373905 15.2985 0.869048 15.8767C1.36419 16.4549 2.04923 16.8376 2.80117 16.9562L2.8043 16.9609C2.8043 16.9609 7.15081 17.8015 10.4996 17.8015C13.8484 17.8015 18.1949 16.9609 18.1949 16.9609L18.1965 16.9593C18.9492 16.841 19.6351 16.458 20.1306 15.8791C20.6261 15.3002 20.8988 14.5635 20.8996 13.8015V13.8V9.00151V8.99995V4.19995C20.8985 3.43845 20.6259 2.70231 20.1307 2.1238C19.6355 1.54528 18.9503 1.16231 18.198 1.0437L18.1949 1.03901C18.1949 1.03901 13.8484 0.199951 10.4996 0.199951ZM8.09961 5.3187L14.4996 8.99995L8.09961 12.6812V5.3187Z" fill="#004643"/>
</svg>
