<svg width="20" height="20" viewBox="0 0 20 20" fill="none" xmlns="http://www.w3.org/2000/svg">
<path d="M11.5438 8.45645C10.7247 7.63768 9.61396 7.17773 8.45581 7.17773C7.29766 7.17773 6.18692 7.63768 5.36781 8.45645L2.27881 11.5444C1.45969 12.3636 0.999512 13.4745 0.999512 14.6329C0.999512 15.7914 1.45969 16.9023 2.27881 17.7215C3.09793 18.5406 4.2089 19.0007 5.36731 19.0007C6.52572 19.0007 7.63669 18.5406 8.45581 17.7215L9.99981 16.1775" stroke="#F77F00" stroke-width="2" stroke-linecap="round" stroke-linejoin="round"/>
<path d="M8.45557 11.5443C9.27467 12.3631 10.3854 12.823 11.5436 12.823C12.7017 12.823 13.8125 12.3631 14.6316 11.5443L17.7206 8.4563C18.5397 7.63718 18.9999 6.52621 18.9999 5.3678C18.9999 4.20939 18.5397 3.09842 17.7206 2.2793C16.9014 1.46018 15.7905 1 14.6321 1C13.4737 1 12.3627 1.46018 11.5436 2.2793L9.99957 3.8233" stroke="#F77F00" stroke-width="2" stroke-linecap="round" stroke-linejoin="round"/>
</svg>
