<svg width="25" height="14" viewBox="0 0 25 14" fill="none" xmlns="http://www.w3.org/2000/svg">
<path d="M20.0108 6.58404L20.416 6.877L20.0108 6.58405L20.0021 6.59609L19.9941 6.60862C19.9907 6.61402 19.9872 6.61948 19.9837 6.62499C19.8606 6.81834 19.6925 7.08222 19.6675 7.38975C19.6387 7.74501 19.7973 8.04642 20.0182 8.327C20.1841 8.55157 20.4986 8.8539 20.8027 9.14624C20.8182 9.1611 20.8336 9.17593 20.849 9.19073C21.1934 9.52196 21.5583 9.87433 21.8463 10.2084L21.8462 10.2085L21.854 10.2173C22.4144 10.8373 22.8968 11.3987 23.2664 11.8898C23.6397 12.3859 23.869 12.7733 23.9627 13.0532C24.04 13.3186 23.9769 13.3891 23.9718 13.3948L23.9716 13.395C23.9496 13.42 23.8447 13.5 23.53 13.5H20.905C20.7271 13.5 20.6002 13.4669 20.4807 13.4055C20.3507 13.3387 20.2067 13.2268 20.0101 13.0331C19.8497 12.8752 19.6745 12.6838 19.4548 12.4436C19.4021 12.3861 19.3469 12.3257 19.2887 12.2624C18.9927 11.9401 18.6341 11.5561 18.1804 11.1104L18.1805 11.1103L18.1737 11.1039C16.6059 9.61954 15.8137 9.3 15.215 9.3C14.9438 9.3 14.5506 9.32631 14.2864 9.64868C14.1631 9.79915 14.1027 9.97404 14.0703 10.1385C14.0382 10.3022 14.028 10.4866 14.028 10.684V12.997C14.028 13.2623 13.985 13.2904 13.9441 13.3173L13.9413 13.3191C13.8178 13.4004 13.4879 13.5 12.653 13.5C10.065 13.5 7.14995 11.949 5.05286 8.99177L5.05288 8.99175L5.04954 8.98715C3.44436 6.77738 2.42701 4.84351 1.81258 3.38658C1.50525 2.65783 1.29964 2.05059 1.17169 1.58987C1.03965 1.11447 1 0.829265 1 0.73C1 0.664425 1.00674 0.622603 1.01428 0.597342C1.02048 0.576568 1.02572 0.571429 1.02667 0.570508C1.02671 0.570469 1.02674 0.570437 1.02676 0.570412L1.0268 0.570369C1.02793 0.569203 1.04335 0.553174 1.09632 0.536107C1.15329 0.51775 1.24885 0.5 1.4 0.5H4.027C4.28843 0.5 4.38075 0.554241 4.43542 0.603804C4.51437 0.675378 4.60648 0.82189 4.72681 1.16744L4.72703 1.16807C5.38212 3.04105 6.2617 4.79794 7.09681 6.09406C7.51346 6.74071 7.92791 7.28655 8.30747 7.67727C8.49678 7.87214 8.68866 8.04016 8.8782 8.16272C9.05885 8.27953 9.28751 8.388 9.539 8.388C9.65363 8.388 9.80569 8.37627 9.95858 8.30851C10.1256 8.2345 10.2545 8.11143 10.3433 7.95396C10.4947 7.68546 10.526 7.31617 10.526 6.904V3.106V3.09214L10.5252 3.0783C10.4707 2.09606 10.1699 1.53001 9.8684 1.12724C9.80246 1.03916 9.73764 0.960365 9.68401 0.895178L9.67364 0.882573C9.61481 0.811019 9.57381 0.760366 9.54119 0.714017C9.48286 0.631156 9.48295 0.605595 9.483 0.593903L9.483 0.593C9.483 0.59304 9.483 0.591656 9.48358 0.588916C9.48417 0.586173 9.48528 0.582352 9.4873 0.577706C9.4914 0.568275 9.49858 0.556955 9.50987 0.545935C9.52899 0.527268 9.56968 0.5 9.651 0.5H13.779C13.8772 0.5 13.9262 0.513305 13.9458 0.521032C13.9516 0.523335 13.9547 0.525051 13.9558 0.525755C13.956 0.52597 13.9562 0.526294 13.9566 0.526757C13.96 0.531347 13.9773 0.557265 13.9929 0.629075C14.0087 0.701725 14.019 0.804537 14.019 0.948V6.057C14.019 6.7165 14.3547 7.295 14.937 7.295C15.5071 7.295 15.9267 6.93382 16.5116 6.35845L16.5214 6.34884L16.5306 6.3387C17.5163 5.25658 18.3455 3.89746 18.9233 2.8246C19.2138 2.28523 19.4441 1.81198 19.6021 1.47296C19.6811 1.30335 19.7421 1.16707 19.7837 1.07259C19.8044 1.02534 19.8203 0.988526 19.8312 0.9632L19.8436 0.933952L19.8465 0.927079C19.9077 0.787594 19.98 0.688685 20.0686 0.622865C20.1522 0.560842 20.2879 0.5 20.53 0.5H23.155C23.3965 0.5 23.4822 0.544882 23.504 0.559962C23.5064 0.569338 23.5102 0.590934 23.5074 0.629649L23.4608 0.839844C23.395 1.13685 23.167 1.63804 22.8191 2.26626C22.4803 2.87793 22.0562 3.56105 21.6384 4.20357C21.2214 4.84503 20.8141 5.44068 20.5108 5.87629C20.3593 6.09395 20.234 6.27134 20.1467 6.39412C20.103 6.4555 20.0689 6.50322 20.0457 6.53547L20.0195 6.57203L20.0129 6.58119L20.0113 6.58342L20.0109 6.58393L20.0108 6.58404Z" fill="#004643" stroke="#004643"/>
</svg>
