<svg width="25" height="24" viewBox="0 0 25 24" fill="none" xmlns="http://www.w3.org/2000/svg">
<g clip-path="url(#clip0_68_801)">
<path d="M14.8143 14.3143C12.9286 16.26 12.7914 18.6857 12.6286 24C17.5829 24 21.0029 23.9829 22.7686 22.2686C24.4829 20.5029 24.5 16.92 24.5 12.1286C19.1857 12.3 16.76 12.4286 14.8143 14.3143ZM0.5 12.1286C0.5 16.92 0.517143 20.5029 2.23143 22.2686C3.99714 23.9829 7.41714 24 12.3714 24C12.2 18.6857 12.0714 16.26 10.1857 14.3143C8.24 12.4286 5.81429 12.2914 0.5 12.1286ZM12.3714 0C7.42571 0 3.99714 0.0171428 2.23143 1.73143C0.517143 3.49714 0.5 7.08 0.5 11.8714C5.81429 11.7 8.24 11.5714 10.1857 9.68571C12.0714 7.74 12.2086 5.31429 12.3714 0ZM14.8143 9.68571C12.9286 7.74 12.7914 5.31429 12.6286 0C17.5829 0 21.0029 0.0171428 22.7686 1.73143C24.4829 3.49714 24.5 7.08 24.5 11.8714C19.1857 11.7 16.76 11.5714 14.8143 9.68571Z" fill="#004643"/>
<path d="M24.5 12.1286V11.8714C19.1857 11.7 16.76 11.5714 14.8143 9.68571C12.9286 7.74 12.7914 5.31429 12.6286 0H12.3714C12.2 5.31429 12.0714 7.74 10.1857 9.68571C8.24 11.5714 5.81429 11.7086 0.5 11.8714V12.1286C5.81429 12.3 8.24 12.4286 10.1857 14.3143C12.0714 16.26 12.2086 18.6857 12.3714 24H12.6286C12.8 18.6857 12.9286 16.26 14.8143 14.3143C16.76 12.4286 19.1857 12.2914 24.5 12.1286Z" fill="white"/>
</g>
<defs>
<clipPath id="clip0_68_801">
<rect width="24" height="24" fill="white" transform="translate(0.5)"/>
</clipPath>
</defs>
</svg>
