<svg width="199" height="200" viewBox="0 0 199 200" fill="none" xmlns="http://www.w3.org/2000/svg">
<path d="M99.5 0L102.165 74.6397L120.291 2.18524L107.38 75.7481L140.174 8.64545L112.25 77.9164L158.279 19.0983L116.563 81.0498L173.814 33.0869L120.13 85.0115L186.103 50L122.795 89.6282L194.606 69.0983L124.443 94.6982L198.952 89.5471L125 100L198.952 110.453L124.443 105.302L194.606 130.902L122.795 110.372L186.103 150L120.13 114.989L173.814 166.913L116.563 118.95L158.279 180.902L112.25 122.084L140.174 191.355L107.38 124.252L120.291 197.815L102.165 125.36L99.5 200L96.8345 125.36L78.7088 197.815L91.6201 124.252L58.8263 191.355L86.75 122.084L40.7215 180.902L82.4372 118.95L25.1855 166.913L78.8701 114.989L12.8975 150L76.2046 110.372L4.39439 130.902L74.5572 105.302L0.0478516 110.453L74 100L0.0478516 89.5471L74.5572 94.6982L4.39439 69.0983L76.2046 89.6282L12.8975 50L78.8701 85.0115L25.1855 33.0869L82.4372 81.0498L40.7215 19.0983L86.75 77.9164L58.8263 8.64545L91.6201 75.7481L78.7088 2.18524L96.8345 74.6397L99.5 0Z" fill="white"/>
</svg>
