<svg width="40" height="40" viewBox="0 0 40 40" fill="none" xmlns="http://www.w3.org/2000/svg">
<rect width="40" height="40" rx="20" fill="white"/>
<path d="M31.3225 8.69838C30.7222 8.08232 29.8338 7.8528 29.0055 8.0944L9.6896 13.7114C8.81564 13.9542 8.19618 14.6512 8.02932 15.5367C7.85885 16.4378 8.45429 17.5817 9.23221 18.0601L15.2719 21.7722C15.8913 22.1527 16.6909 22.0573 17.2035 21.5402L24.1195 14.5812C24.4676 14.2188 25.0439 14.2188 25.392 14.5812C25.7402 14.9315 25.7402 15.4992 25.392 15.8616L18.464 22.8219C17.9502 23.3377 17.8541 24.141 18.2323 24.7643L21.9226 30.8645C22.3548 31.5893 23.0991 32 23.9154 32C24.0115 32 24.1195 32 24.2155 31.9879C25.1519 31.8671 25.8962 31.2269 26.1723 30.3209L31.8987 11.0297C32.1508 10.2083 31.9227 9.31444 31.3225 8.69838Z" fill="#F77F00"/>
</svg>
