<svg width="40" height="40" viewBox="0 0 40 40" fill="none" xmlns="http://www.w3.org/2000/svg">
<rect width="40" height="40" rx="20" fill="white"/>
<g clip-path="url(#clip0_313_967)">
<path d="M27.5108 19.584L27.916 19.877L27.5108 19.584L27.5021 19.5961L27.4941 19.6086C27.4907 19.614 27.4872 19.6195 27.4837 19.625C27.3606 19.8183 27.1925 20.0822 27.1675 20.3898C27.1387 20.745 27.2973 21.0464 27.5182 21.327C27.6841 21.5516 27.9986 21.8539 28.3027 22.1462C28.3182 22.1611 28.3336 22.1759 28.349 22.1907C28.6934 22.522 29.0583 22.8743 29.3463 23.2084L29.3462 23.2085L29.354 23.2173C29.9144 23.8373 30.3968 24.3987 30.7664 24.8898C31.1397 25.3859 31.369 25.7733 31.4627 26.0532C31.54 26.3186 31.4769 26.3891 31.4718 26.3948L31.4716 26.395C31.4496 26.42 31.3447 26.5 31.03 26.5H28.405C28.2271 26.5 28.1002 26.4669 27.9807 26.4055C27.8507 26.3387 27.7067 26.2268 27.5101 26.0331C27.3497 25.8752 27.1745 25.6838 26.9548 25.4436C26.9021 25.3861 26.8469 25.3257 26.7887 25.2624C26.4927 24.9401 26.1341 24.5561 25.6804 24.1104L25.6805 24.1103L25.6737 24.1039C24.1059 22.6195 23.3137 22.3 22.715 22.3C22.4438 22.3 22.0506 22.3263 21.7864 22.6487C21.6631 22.7992 21.6027 22.974 21.5703 23.1385C21.5382 23.3022 21.528 23.4866 21.528 23.684V25.997C21.528 26.2623 21.485 26.2904 21.4441 26.3173L21.4413 26.3191C21.3178 26.4004 20.9879 26.5 20.153 26.5C17.565 26.5 14.6499 24.949 12.5529 21.9918L12.5529 21.9918L12.5495 21.9871C10.9444 19.7774 9.92701 17.8435 9.31258 16.3866C9.00525 15.6578 8.79964 15.0506 8.67169 14.5899C8.53965 14.1145 8.5 13.8293 8.5 13.73C8.5 13.6644 8.50674 13.6226 8.51428 13.5973C8.52048 13.5766 8.52572 13.5714 8.52667 13.5705C8.52671 13.5705 8.52674 13.5704 8.52676 13.5704L8.5268 13.5704C8.52793 13.5692 8.54335 13.5532 8.59632 13.5361C8.65329 13.5177 8.74885 13.5 8.9 13.5H11.527C11.7884 13.5 11.8808 13.5542 11.9354 13.6038C12.0144 13.6754 12.1065 13.8219 12.2268 14.1674L12.227 14.1681C12.8821 16.041 13.7617 17.7979 14.5968 19.0941C15.0135 19.7407 15.4279 20.2865 15.8075 20.6773C15.9968 20.8721 16.1887 21.0402 16.3782 21.1627C16.5589 21.2795 16.7875 21.388 17.039 21.388C17.1536 21.388 17.3057 21.3763 17.4586 21.3085C17.6256 21.2345 17.7545 21.1114 17.8433 20.954C17.9947 20.6855 18.026 20.3162 18.026 19.904V16.106V16.0921L18.0252 16.0783C17.9707 15.0961 17.6699 14.53 17.3684 14.1272C17.3025 14.0392 17.2376 13.9604 17.184 13.8952L17.1736 13.8826C17.1148 13.811 17.0738 13.7604 17.0412 13.714C16.9829 13.6312 16.983 13.6056 16.983 13.5939L16.983 13.593C16.983 13.593 16.983 13.5917 16.9836 13.5889C16.9842 13.5862 16.9853 13.5824 16.9873 13.5777C16.9914 13.5683 16.9986 13.557 17.0099 13.5459C17.029 13.5273 17.0697 13.5 17.151 13.5H21.279C21.3772 13.5 21.4262 13.5133 21.4458 13.521C21.4516 13.5233 21.4547 13.5251 21.4558 13.5258C21.456 13.526 21.4562 13.5263 21.4566 13.5268C21.46 13.5313 21.4773 13.5573 21.4929 13.6291C21.5087 13.7017 21.519 13.8045 21.519 13.948V19.057C21.519 19.7165 21.8547 20.295 22.437 20.295C23.0071 20.295 23.4267 19.9338 24.0116 19.3585L24.0214 19.3488L24.0306 19.3387C25.0163 18.2566 25.8455 16.8975 26.4233 15.8246C26.7138 15.2852 26.9441 14.812 27.1021 14.473C27.1811 14.3034 27.2421 14.1671 27.2837 14.0726C27.3044 14.0253 27.3203 13.9885 27.3312 13.9632L27.3436 13.934L27.3465 13.9271C27.4077 13.7876 27.48 13.6887 27.5686 13.6229C27.6522 13.5608 27.7879 13.5 28.03 13.5H30.655C30.8965 13.5 30.9822 13.5449 31.004 13.56C31.0064 13.5693 31.0102 13.5909 31.0074 13.6296L30.9608 13.8398C30.895 14.1368 30.667 14.638 30.3191 15.2663C29.9803 15.8779 29.5562 16.561 29.1384 17.2036C28.7214 17.845 28.3141 18.4407 28.0108 18.8763C27.8593 19.094 27.734 19.2713 27.6467 19.3941C27.603 19.4555 27.5689 19.5032 27.5457 19.5355L27.5195 19.572L27.5129 19.5812L27.5113 19.5834L27.5109 19.5839L27.5108 19.584Z" fill="#F77F00" stroke="#F77F00"/>
</g>
<defs>
<clipPath id="clip0_313_967">
<rect width="24" height="24" fill="white" transform="translate(8 8)"/>
</clipPath>
</defs>
</svg>
