<svg width="40" height="40" viewBox="0 0 40 40" fill="none" xmlns="http://www.w3.org/2000/svg">
<rect width="40" height="40" rx="20" fill="white"/>
<path d="M22.44 8.98047H18C13.66 8.98047 10 12.4405 10 16.5305V20.0205C10 23.4105 11.02 25.6105 13.12 26.7405V29.0405C13.12 29.8205 13.59 30.5205 14.3 30.8205C14.55 30.9305 14.8 30.9805 15.06 30.9805C15.55 30.9805 16.04 30.7905 16.41 30.4305L19.37 27.5705H22.44C26.61 27.5705 30 24.1805 30 20.0205V16.5305C30 12.3605 26.61 8.98047 22.44 8.98047ZM24.82 22.6905C24.67 22.8905 24.49 23.1105 24.31 23.3305C23.79 23.9305 22.94 24.1505 22.2 23.8405C20.51 23.1505 18.49 21.7505 17.21 20.5705C16.17 19.6005 14.93 17.3405 14.19 15.8805C13.8 15.1005 14.02 14.1605 14.72 13.6205L15.3 13.1705C15.72 12.8505 16.32 12.9405 16.62 13.3705L17.76 14.9805C18.03 15.3705 17.96 15.9005 17.59 16.2005L17.28 16.4605C17.01 16.6905 16.89 17.0505 16.97 17.3905C17.12 17.9505 17.52 18.7705 18.24 19.5405C19.11 20.4705 19.87 20.7805 20.34 20.8805C20.65 20.9405 20.96 20.8205 21.17 20.5905L21.48 20.2405C21.79 19.8505 22.35 19.7705 22.75 20.0605L24.62 21.4105C25.04 21.7105 25.12 22.2805 24.82 22.6905ZM20.5 16.4805C20.5 16.2005 20.72 15.9805 21 15.9805C22.2 15.9805 23 16.7805 23 17.9805C23 18.2605 22.78 18.4805 22.5 18.4805C22.22 18.4805 22 18.2605 22 17.9805C22 17.3405 21.65 16.9805 21 16.9805C20.72 16.9805 20.5 16.7605 20.5 16.4805ZM24.5 18.4805C24.22 18.4805 24 18.2605 24 17.9805C24 16.4705 22.51 14.9805 21 14.9805C20.72 14.9805 20.5 14.7605 20.5 14.4805C20.5 14.2005 20.72 13.9805 21 13.9805C23.06 13.9805 25 15.9205 25 17.9805C25 18.2605 24.78 18.4805 24.5 18.4805ZM26.5 18.4805C26.22 18.4805 26 18.2605 26 17.9805C26 15.6105 23.95 12.9805 21 12.9805C20.72 12.9805 20.5 12.7605 20.5 12.4805C20.5 12.2005 20.72 11.9805 21 11.9805C24.54 11.9805 27 15.1405 27 17.9805C27 18.2605 26.78 18.4805 26.5 18.4805Z" fill="#F77F00"/>
</svg>
