<svg width="40" height="40" viewBox="0 0 40 40" fill="none" xmlns="http://www.w3.org/2000/svg">
<rect width="40" height="40" rx="20" fill="white"/>
<path d="M20.0001 11.2002C16.6513 11.2002 12.3048 12.0393 12.3048 12.0393L12.2938 12.0518C10.7686 12.2957 9.6001 13.6063 9.6001 15.2002V20.0002V20.0018V24.8002V24.8018C9.60159 25.563 9.87439 26.2988 10.3695 26.8769C10.8647 27.4551 11.5497 27.8379 12.3017 27.9564L12.3048 27.9611C12.3048 27.9611 16.6513 28.8018 20.0001 28.8018C23.3489 28.8018 27.6954 27.9611 27.6954 27.9611L27.697 27.9596C28.4497 27.8413 29.1356 27.4582 29.6311 26.8793C30.1266 26.3005 30.3993 25.5638 30.4001 24.8018V24.8002V20.0018V20.0002V15.2002C30.399 14.4387 30.1263 13.7026 29.6312 13.124C29.136 12.5455 28.4507 12.1626 27.6985 12.0439L27.6954 12.0393C27.6954 12.0393 23.3489 11.2002 20.0001 11.2002ZM17.6001 16.3189L24.0001 20.0002L17.6001 23.6814V16.3189Z" fill="#F77F00"/>
</svg>
